# xmcd
#
# Track frame offsets:
#	150
#	19005
#	37660
#	64132
#	77302
#	89254
#	102379
#	129290
#	150623
#	177732
#	200234
#	215151
#	245816
#	264173
#	278298
#	291437
#	301595
#
# Disc length: 4188 seconds
#
# Revision: 0
# Processed by: cddbd v1.4PL0 Copyright (c) Steve Scherf et al.
# Submitted via: EZCDDA 4.3.3.2
#
DISCID=e6105a11
DTITLE=Cuba. Por La Musica, Siempre - Cuba. Por La Musica, Siempre CD1
DYEAR=1900
DGENRE=
TTITLE0=Chan Chan [Cuarteto Patria]
TTITLE1=Besame Mucho [Las Perlas Des Son]
TTITLE2=Cielito Lindo [Septeto Habanero]
TTITLE3=Chino Bueno [Orquestra Raul Zequeira]
TTITLE4=Son Candela [Orquestra Barreto]
TTITLE5=Ne Comprends Pas [Orquestra Raul Zequeira]
TTITLE6=Que Lindo Llambu [Eddie Palmieri]
TTITLE7=Cuando Me Toca A Mi [Septeto Habanero]
TTITLE8=A Mi Oriente [Septeto Soneros San Luis]
TTITLE9=Sabor A Caney [Cuarteto Patria]
TTITLE10=Moreno [Septeto Tipico Spirituano]
TTITLE11=Por Encima Del Nivel [Los Van Van]
TTITLE12=Tanga - Mambo [Mario Bauza And His Afro-Cuban Orchestra]
TTITLE13=Que Mire [Orchestra Barreto]
TTITLE14=Amor Con Salsa [Tropical Orchestra]
TTITLE15=Tinaro [Orquesta Hector Grané]
TTITLE16=Merengue En Paris [Los Cubaztecas]
EXTD=
EXTT0=
EXTT1=
EXTT2=
EXTT3=
EXTT4=
EXTT5=
EXTT6=
EXTT7=
EXTT8=
EXTT9=
EXTT10=
EXTT11=
EXTT12=
EXTT13=
EXTT14=
EXTT15=
EXTT16=
PLAYORDER=
